<mxfile host="app.diagrams.net" modified="2021-05-18T06:08:56.101Z" agent="5.0 (Macintosh; Intel Mac OS X 10_15_6) AppleWebKit/537.36 (KHTML, like Gecko) Chrome/90.0.4430.212 Safari/537.36" etag="vK4_lFYiMX89gXTDwnJq" version="14.6.13" type="github">
  <diagram id="iyjNrZEIIlaJpKlFBpwa" name="Page-1">
    <mxGraphModel dx="1426" dy="704" grid="1" gridSize="10" guides="1" tooltips="1" connect="1" arrows="1" fold="1" page="1" pageScale="1" pageWidth="827" pageHeight="1169" math="0" shadow="0">
      <root>
        <mxCell id="0" />
        <mxCell id="1" parent="0" />
        <mxCell id="Y-lhdCYYxK5GopnYnzkg-1" value="close opt" style="swimlane;html=1;childLayout=stackLayout;resizeParent=1;resizeParentMax=0;startSize=20;" parent="1" vertex="1">
          <mxGeometry x="230" y="30" width="820" height="1160" as="geometry" />
        </mxCell>
        <mxCell id="Y-lhdCYYxK5GopnYnzkg-2" value="player-1" style="swimlane;html=1;startSize=20;" parent="Y-lhdCYYxK5GopnYnzkg-1" vertex="1">
          <mxGeometry y="20" width="240" height="1140" as="geometry" />
        </mxCell>
        <mxCell id="Y-lhdCYYxK5GopnYnzkg-5" value="连接/登陆/进入战场&lt;br&gt;开始游戏" style="rounded=0;whiteSpace=wrap;html=1;" parent="Y-lhdCYYxK5GopnYnzkg-2" vertex="1">
          <mxGeometry x="60" y="70" width="120" height="60" as="geometry" />
        </mxCell>
        <mxCell id="Y-lhdCYYxK5GopnYnzkg-8" value="" style="endArrow=classic;startArrow=classic;html=1;entryX=0;entryY=0.5;entryDx=0;entryDy=0;" parent="Y-lhdCYYxK5GopnYnzkg-2" target="Y-lhdCYYxK5GopnYnzkg-7" edge="1">
          <mxGeometry width="50" height="50" relative="1" as="geometry">
            <mxPoint x="180" y="99.5" as="sourcePoint" />
            <mxPoint x="250" y="99.5" as="targetPoint" />
          </mxGeometry>
        </mxCell>
        <mxCell id="Y-lhdCYYxK5GopnYnzkg-10" value="推送&lt;br&gt;玩家操作" style="rounded=0;whiteSpace=wrap;html=1;" parent="Y-lhdCYYxK5GopnYnzkg-2" vertex="1">
          <mxGeometry x="60" y="180" width="120" height="60" as="geometry" />
        </mxCell>
        <mxCell id="Y-lhdCYYxK5GopnYnzkg-16" value="接收&lt;br&gt;逻辑帧" style="rounded=0;whiteSpace=wrap;html=1;" parent="Y-lhdCYYxK5GopnYnzkg-2" vertex="1">
          <mxGeometry x="60" y="340" width="120" height="60" as="geometry" />
        </mxCell>
        <mxCell id="Y-lhdCYYxK5GopnYnzkg-17" value="" style="endArrow=classic;html=1;entryX=1.025;entryY=0.588;entryDx=0;entryDy=0;entryPerimeter=0;" parent="Y-lhdCYYxK5GopnYnzkg-2" edge="1">
          <mxGeometry width="50" height="50" relative="1" as="geometry">
            <mxPoint x="353.5" y="300" as="sourcePoint" />
            <mxPoint x="185.5" y="377.03999999999996" as="targetPoint" />
          </mxGeometry>
        </mxCell>
        <mxCell id="Y-lhdCYYxK5GopnYnzkg-21" value="推送&lt;br&gt;玩家操作" style="rounded=0;whiteSpace=wrap;html=1;" parent="Y-lhdCYYxK5GopnYnzkg-2" vertex="1">
          <mxGeometry x="60" y="465" width="120" height="60" as="geometry" />
        </mxCell>
        <mxCell id="K6ixlQ37SQ0X0arZtg30-17" style="edgeStyle=orthogonalEdgeStyle;rounded=0;orthogonalLoop=1;jettySize=auto;html=1;entryX=0.5;entryY=0;entryDx=0;entryDy=0;" edge="1" parent="Y-lhdCYYxK5GopnYnzkg-2" source="Y-lhdCYYxK5GopnYnzkg-31" target="K6ixlQ37SQ0X0arZtg30-1">
          <mxGeometry relative="1" as="geometry" />
        </mxCell>
        <mxCell id="Y-lhdCYYxK5GopnYnzkg-31" value="RTT&lt;br&gt;timer" style="shape=process;whiteSpace=wrap;html=1;backgroundOutline=1;" parent="Y-lhdCYYxK5GopnYnzkg-2" vertex="1">
          <mxGeometry x="70" y="590" width="100" height="60" as="geometry" />
        </mxCell>
        <mxCell id="K6ixlQ37SQ0X0arZtg30-18" style="edgeStyle=orthogonalEdgeStyle;rounded=0;orthogonalLoop=1;jettySize=auto;html=1;entryX=0.5;entryY=0;entryDx=0;entryDy=0;" edge="1" parent="Y-lhdCYYxK5GopnYnzkg-2" source="K6ixlQ37SQ0X0arZtg30-1" target="K6ixlQ37SQ0X0arZtg30-3">
          <mxGeometry relative="1" as="geometry" />
        </mxCell>
        <mxCell id="K6ixlQ37SQ0X0arZtg30-1" value="检测出超时" style="rounded=0;whiteSpace=wrap;html=1;" vertex="1" parent="Y-lhdCYYxK5GopnYnzkg-2">
          <mxGeometry x="60" y="690" width="120" height="60" as="geometry" />
        </mxCell>
        <mxCell id="K6ixlQ37SQ0X0arZtg30-19" style="edgeStyle=orthogonalEdgeStyle;rounded=0;orthogonalLoop=1;jettySize=auto;html=1;entryX=0.5;entryY=0;entryDx=0;entryDy=0;" edge="1" parent="Y-lhdCYYxK5GopnYnzkg-2" source="K6ixlQ37SQ0X0arZtg30-3" target="K6ixlQ37SQ0X0arZtg30-4">
          <mxGeometry relative="1" as="geometry" />
        </mxCell>
        <mxCell id="K6ixlQ37SQ0X0arZtg30-3" value="弹出窗口&lt;br&gt;提示玩家&lt;br&gt;网络异常" style="rounded=0;whiteSpace=wrap;html=1;" vertex="1" parent="Y-lhdCYYxK5GopnYnzkg-2">
          <mxGeometry x="60" y="810" width="120" height="60" as="geometry" />
        </mxCell>
        <mxCell id="K6ixlQ37SQ0X0arZtg30-4" value="尝试&lt;br&gt;恢复网络" style="ellipse;whiteSpace=wrap;html=1;aspect=fixed;" vertex="1" parent="Y-lhdCYYxK5GopnYnzkg-2">
          <mxGeometry x="80" y="930" width="80" height="80" as="geometry" />
        </mxCell>
        <mxCell id="Y-lhdCYYxK5GopnYnzkg-3" value="server" style="swimlane;html=1;startSize=20;" parent="Y-lhdCYYxK5GopnYnzkg-1" vertex="1">
          <mxGeometry x="240" y="20" width="300" height="1140" as="geometry" />
        </mxCell>
        <mxCell id="Y-lhdCYYxK5GopnYnzkg-7" value="前置条件&lt;br&gt;初始化&lt;br&gt;完成" style="ellipse;whiteSpace=wrap;html=1;aspect=fixed;" parent="Y-lhdCYYxK5GopnYnzkg-3" vertex="1">
          <mxGeometry x="114" y="60" width="80" height="80" as="geometry" />
        </mxCell>
        <mxCell id="Y-lhdCYYxK5GopnYnzkg-12" value="处理&lt;br&gt;逻辑帧" style="ellipse;whiteSpace=wrap;html=1;aspect=fixed;" parent="Y-lhdCYYxK5GopnYnzkg-3" vertex="1">
          <mxGeometry x="120" y="240" width="80" height="80" as="geometry" />
        </mxCell>
        <mxCell id="Y-lhdCYYxK5GopnYnzkg-22" value="处理&lt;br&gt;逻辑帧" style="ellipse;whiteSpace=wrap;html=1;aspect=fixed;" parent="Y-lhdCYYxK5GopnYnzkg-3" vertex="1">
          <mxGeometry x="110" y="560" width="80" height="80" as="geometry" />
        </mxCell>
        <mxCell id="Y-lhdCYYxK5GopnYnzkg-23" value="未到达S端" style="endArrow=classic;html=1;exitX=1;exitY=0.5;exitDx=0;exitDy=0;" parent="Y-lhdCYYxK5GopnYnzkg-3" edge="1">
          <mxGeometry width="50" height="50" relative="1" as="geometry">
            <mxPoint x="-60" y="500" as="sourcePoint" />
            <mxPoint x="50" y="560" as="targetPoint" />
          </mxGeometry>
        </mxCell>
        <mxCell id="K6ixlQ37SQ0X0arZtg30-11" style="edgeStyle=orthogonalEdgeStyle;rounded=0;orthogonalLoop=1;jettySize=auto;html=1;entryX=0.5;entryY=0;entryDx=0;entryDy=0;" edge="1" parent="Y-lhdCYYxK5GopnYnzkg-3" source="K6ixlQ37SQ0X0arZtg30-5" target="K6ixlQ37SQ0X0arZtg30-6">
          <mxGeometry relative="1" as="geometry" />
        </mxCell>
        <mxCell id="K6ixlQ37SQ0X0arZtg30-5" value="RTT&lt;br&gt;timer" style="shape=process;whiteSpace=wrap;html=1;backgroundOutline=1;" vertex="1" parent="Y-lhdCYYxK5GopnYnzkg-3">
          <mxGeometry x="96" y="800" width="100" height="60" as="geometry" />
        </mxCell>
        <mxCell id="K6ixlQ37SQ0X0arZtg30-6" value="检测出超时" style="rounded=0;whiteSpace=wrap;html=1;" vertex="1" parent="Y-lhdCYYxK5GopnYnzkg-3">
          <mxGeometry x="86" y="930" width="120" height="60" as="geometry" />
        </mxCell>
        <mxCell id="K6ixlQ37SQ0X0arZtg30-9" value="始终等不到玩家&lt;br&gt;推送操作帧" style="rounded=0;whiteSpace=wrap;html=1;" vertex="1" parent="Y-lhdCYYxK5GopnYnzkg-3">
          <mxGeometry x="86" y="710" width="120" height="60" as="geometry" />
        </mxCell>
        <mxCell id="K6ixlQ37SQ0X0arZtg30-10" value="S端&lt;br&gt;RTT-timeout&lt;br&gt;一定要小于C端&lt;br&gt;RTT-timeout" style="text;html=1;strokeColor=none;fillColor=none;align=center;verticalAlign=middle;whiteSpace=wrap;rounded=0;" vertex="1" parent="Y-lhdCYYxK5GopnYnzkg-3">
          <mxGeometry y="770" width="110" height="60" as="geometry" />
        </mxCell>
        <mxCell id="Y-lhdCYYxK5GopnYnzkg-4" value="player-2" style="swimlane;html=1;startSize=20;" parent="Y-lhdCYYxK5GopnYnzkg-1" vertex="1">
          <mxGeometry x="540" y="20" width="280" height="1140" as="geometry" />
        </mxCell>
        <mxCell id="Y-lhdCYYxK5GopnYnzkg-6" value="连接/登陆/进入战场&lt;br&gt;开始游戏" style="rounded=0;whiteSpace=wrap;html=1;" parent="Y-lhdCYYxK5GopnYnzkg-4" vertex="1">
          <mxGeometry x="70" y="70" width="120" height="60" as="geometry" />
        </mxCell>
        <mxCell id="Y-lhdCYYxK5GopnYnzkg-9" value="" style="endArrow=classic;startArrow=classic;html=1;entryX=0;entryY=0.5;entryDx=0;entryDy=0;" parent="Y-lhdCYYxK5GopnYnzkg-4" edge="1">
          <mxGeometry width="50" height="50" relative="1" as="geometry">
            <mxPoint x="-106" y="99.5" as="sourcePoint" />
            <mxPoint x="68" y="100" as="targetPoint" />
          </mxGeometry>
        </mxCell>
        <mxCell id="Y-lhdCYYxK5GopnYnzkg-11" value="推送&lt;br&gt;玩家操作" style="rounded=0;whiteSpace=wrap;html=1;" parent="Y-lhdCYYxK5GopnYnzkg-4" vertex="1">
          <mxGeometry x="70" y="180" width="120" height="60" as="geometry" />
        </mxCell>
        <mxCell id="Y-lhdCYYxK5GopnYnzkg-15" value="" style="endArrow=classic;html=1;entryX=1.025;entryY=0.588;entryDx=0;entryDy=0;entryPerimeter=0;" parent="Y-lhdCYYxK5GopnYnzkg-4" target="Y-lhdCYYxK5GopnYnzkg-12" edge="1">
          <mxGeometry width="50" height="50" relative="1" as="geometry">
            <mxPoint x="70" y="210" as="sourcePoint" />
            <mxPoint y="260" as="targetPoint" />
          </mxGeometry>
        </mxCell>
        <mxCell id="Y-lhdCYYxK5GopnYnzkg-18" value="接收&lt;br&gt;逻辑帧" style="rounded=0;whiteSpace=wrap;html=1;" parent="Y-lhdCYYxK5GopnYnzkg-4" vertex="1">
          <mxGeometry x="70" y="330" width="120" height="60" as="geometry" />
        </mxCell>
        <mxCell id="Y-lhdCYYxK5GopnYnzkg-19" value="" style="endArrow=classic;html=1;entryX=0;entryY=0.5;entryDx=0;entryDy=0;exitX=1;exitY=0.5;exitDx=0;exitDy=0;" parent="Y-lhdCYYxK5GopnYnzkg-4" edge="1">
          <mxGeometry width="50" height="50" relative="1" as="geometry">
            <mxPoint x="-110" y="310" as="sourcePoint" />
            <mxPoint x="70" y="380" as="targetPoint" />
          </mxGeometry>
        </mxCell>
        <mxCell id="Y-lhdCYYxK5GopnYnzkg-24" value="推送&lt;br&gt;玩家操作" style="rounded=0;whiteSpace=wrap;html=1;" parent="Y-lhdCYYxK5GopnYnzkg-4" vertex="1">
          <mxGeometry x="80" y="465" width="120" height="60" as="geometry" />
        </mxCell>
        <mxCell id="Y-lhdCYYxK5GopnYnzkg-25" value="" style="endArrow=classic;html=1;entryX=1.025;entryY=0.588;entryDx=0;entryDy=0;entryPerimeter=0;" parent="Y-lhdCYYxK5GopnYnzkg-4" edge="1">
          <mxGeometry width="50" height="50" relative="1" as="geometry">
            <mxPoint x="70" y="520" as="sourcePoint" />
            <mxPoint x="-98" y="597.04" as="targetPoint" />
          </mxGeometry>
        </mxCell>
        <mxCell id="Y-lhdCYYxK5GopnYnzkg-26" value="正常推送" style="edgeLabel;html=1;align=center;verticalAlign=middle;resizable=0;points=[];" parent="Y-lhdCYYxK5GopnYnzkg-25" vertex="1" connectable="0">
          <mxGeometry x="-0.1044" y="1" relative="1" as="geometry">
            <mxPoint y="-1" as="offset" />
          </mxGeometry>
        </mxCell>
        <mxCell id="Y-lhdCYYxK5GopnYnzkg-27" value="&lt;span&gt;接收&lt;/span&gt;&lt;br&gt;&lt;span&gt;S端逻辑帧&lt;br&gt;死循环&lt;br&gt;&lt;/span&gt;" style="rounded=0;whiteSpace=wrap;html=1;" parent="Y-lhdCYYxK5GopnYnzkg-4" vertex="1">
          <mxGeometry x="80" y="630" width="120" height="60" as="geometry" />
        </mxCell>
        <mxCell id="K6ixlQ37SQ0X0arZtg30-8" value="RTT&lt;br&gt;timer" style="shape=process;whiteSpace=wrap;html=1;backgroundOutline=1;" vertex="1" parent="Y-lhdCYYxK5GopnYnzkg-4">
          <mxGeometry x="90" y="770" width="100" height="60" as="geometry" />
        </mxCell>
        <mxCell id="K6ixlQ37SQ0X0arZtg30-14" value="" style="edgeStyle=orthogonalEdgeStyle;rounded=0;orthogonalLoop=1;jettySize=auto;html=1;" edge="1" parent="Y-lhdCYYxK5GopnYnzkg-4" source="K6ixlQ37SQ0X0arZtg30-12" target="K6ixlQ37SQ0X0arZtg30-8">
          <mxGeometry relative="1" as="geometry" />
        </mxCell>
        <mxCell id="K6ixlQ37SQ0X0arZtg30-16" style="edgeStyle=orthogonalEdgeStyle;rounded=0;orthogonalLoop=1;jettySize=auto;html=1;entryX=0.5;entryY=0;entryDx=0;entryDy=0;" edge="1" parent="Y-lhdCYYxK5GopnYnzkg-4" source="K6ixlQ37SQ0X0arZtg30-12" target="K6ixlQ37SQ0X0arZtg30-15">
          <mxGeometry relative="1" as="geometry" />
        </mxCell>
        <mxCell id="K6ixlQ37SQ0X0arZtg30-12" value="&lt;span style=&quot;font-size: 11px ; background-color: rgb(255 , 255 , 255)&quot;&gt;清除RTT-TIMER&lt;br&gt;创建新的等待&lt;br&gt;timer&lt;br&gt;&lt;/span&gt;" style="rounded=0;whiteSpace=wrap;html=1;" vertex="1" parent="Y-lhdCYYxK5GopnYnzkg-4">
          <mxGeometry x="80" y="930" width="120" height="60" as="geometry" />
        </mxCell>
        <mxCell id="K6ixlQ37SQ0X0arZtg30-15" value="等待玩家恢复&lt;br&gt;timer" style="shape=process;whiteSpace=wrap;html=1;backgroundOutline=1;" vertex="1" parent="Y-lhdCYYxK5GopnYnzkg-4">
          <mxGeometry x="90" y="1040" width="100" height="60" as="geometry" />
        </mxCell>
        <mxCell id="Y-lhdCYYxK5GopnYnzkg-13" value="" style="endArrow=classic;html=1;entryX=0;entryY=0.5;entryDx=0;entryDy=0;exitX=1;exitY=0.5;exitDx=0;exitDy=0;" parent="Y-lhdCYYxK5GopnYnzkg-1" source="Y-lhdCYYxK5GopnYnzkg-10" target="Y-lhdCYYxK5GopnYnzkg-12" edge="1">
          <mxGeometry width="50" height="50" relative="1" as="geometry">
            <mxPoint x="260" y="250" as="sourcePoint" />
            <mxPoint x="310" y="200" as="targetPoint" />
          </mxGeometry>
        </mxCell>
        <mxCell id="K6ixlQ37SQ0X0arZtg30-13" value="通知其它玩家&lt;br&gt;有玩家掉线" style="edgeStyle=orthogonalEdgeStyle;rounded=0;orthogonalLoop=1;jettySize=auto;html=1;" edge="1" parent="Y-lhdCYYxK5GopnYnzkg-1" source="K6ixlQ37SQ0X0arZtg30-6" target="K6ixlQ37SQ0X0arZtg30-12">
          <mxGeometry relative="1" as="geometry" />
        </mxCell>
      </root>
    </mxGraphModel>
  </diagram>
</mxfile>
